<?xml version="1.0" encoding="UTF-8" standalone="no"?>
<svg
   xmlns:dc="http://purl.org/dc/elements/1.1/"
   xmlns:cc="http://creativecommons.org/ns#"
   xmlns:rdf="http://www.w3.org/1999/02/22-rdf-syntax-ns#"
   xmlns:svg="http://www.w3.org/2000/svg"
   xmlns="http://www.w3.org/2000/svg"
   xmlns:sodipodi="http://sodipodi.sourceforge.net/DTD/sodipodi-0.dtd"
   xmlns:inkscape="http://www.inkscape.org/namespaces/inkscape"
   version="1.1"
   x="0px"
   y="0px"
   viewBox="0 0 1000 1000"
   enable-background="new 0 0 100 100"
   xml:space="preserve"
   id="svg2"
   inkscape:version="0.48.4 r9939"
   width="100%"
   height="100%"
   sodipodi:docname="noun_18255_cc_Steven-Haycock_NounProject_modified.svg"><metadata
     id="metadata156"><rdf:RDF><cc:Work
         rdf:about=""><dc:format>image/svg+xml</dc:format><dc:type
           rdf:resource="http://purl.org/dc/dcmitype/StillImage" /><dc:title /></cc:Work></rdf:RDF></metadata><defs
     id="defs154" /><sodipodi:namedview
     pagecolor="#ffffff"
     bordercolor="#666666"
     borderopacity="1"
     objecttolerance="10"
     gridtolerance="10"
     guidetolerance="10"
     inkscape:pageopacity="0"
     inkscape:pageshadow="2"
     inkscape:window-width="1484"
     inkscape:window-height="786"
     id="namedview152"
     showgrid="false"
     showguides="true"
     inkscape:guide-bbox="true"
     inkscape:zoom="0.53957157"
     inkscape:cx="260.47536"
     inkscape:cy="484.52252"
     inkscape:window-x="436"
     inkscape:window-y="77"
     inkscape:window-maximized="0"
     inkscape:current-layer="layer1"
     fit-margin-top="0"
     fit-margin-left="0"
     fit-margin-right="0"
     fit-margin-bottom="0"><sodipodi:guide
       orientation="1,0"
       position="49.684712,55.695537"
       id="guide4026" /><sodipodi:guide
       orientation="0,1"
       position="67.512192,48.50462"
       id="guide4028" /><sodipodi:guide
       orientation="1,0"
       position="500.60976,724.7047"
       id="guide3036" /><sodipodi:guide
       orientation="0,1"
       position="604.139,500.60976"
       id="guide3038" /></sodipodi:namedview><g
     inkscape:groupmode="layer"
     id="layer1"
     inkscape:label="Layer"
     transform="translate(-2,902)"><g
       id="g3017"
       transform="translate(11.588941,-13.725961)"><path
         transform="translate(2,-902)"
         d="M 949.74378,26.588178 H 25.657925 C 12.614698,26.588178 2,37.202876 2,50.246103 V 974.32184 C 2,987.41566 12.614698,998 25.657925,998 H 949.74378 c 13.0837,0 23.66804,-10.58434 23.66804,-23.67816 V 50.246103 c 0,-13.043227 -10.58434,-23.657925 -23.66804,-23.657925 z M 109.94814,398.477 c -9.31948,0 -16.878282,-7.56891 -16.878282,-16.89851 V 228.30791 c 0,-9.31948 7.558802,-16.89851 16.878282,-16.89851 h 14.75332 v -50.70568 c 0,-11.77837 9.54209,-21.32046 21.31034,-21.32046 h 696.4618 c 11.7379,0 21.29011,9.54209 21.29011,21.32046 v 696.43145 c 0,11.77837 -9.54209,21.36094 -21.29011,21.36094 H 146.02192 c -11.76825,0 -21.31035,-9.58257 -21.31035,-21.36094 V 750.05725 h -14.75331 c -9.31948,0 -16.878283,-7.56892 -16.878283,-16.87828 V 579.89828 c 0,-9.31948 7.558803,-16.8884 16.878283,-16.8884 h 14.75331 V 398.477 h -14.76343 z"
         id="path116"
         inkscape:connector-curvature="0"
         style="fill:#48413a;fill-opacity:1" /><path
         transform="translate(2,-902)"
         d="M 824.73522,182.01407 H 170.96494 v 29.38521 h 5.72729 c 9.3296,0 16.8884,7.57903 16.8884,16.89852 v 153.27057 c 0,9.3296 -7.5588,16.89851 -16.8884,16.89851 h -5.72729 v 164.53288 h 5.72729 c 9.3296,0 16.8884,7.56892 16.8884,16.8884 v 153.28069 c 0,9.30937 -7.5588,16.87828 -16.8884,16.87828 h -5.72729 v 85.78781 H 824.73522 V 182.01407 z M 508.00437,765.27604 c -141.05709,0 -255.81523,-114.74802 -255.81523,-255.80512 0,-141.03685 114.75814,-255.80511 255.81523,-255.80511 141.04697,0 255.79499,114.75814 255.79499,255.80511 0,141.0571 -114.74802,255.80512 -255.79499,255.80512 z"
         id="path118"
         inkscape:connector-curvature="0"
         style="fill:#48413a;fill-opacity:1" /><polygon
         transform="matrix(10.118873,0,0,10.118873,-16.237746,-895.64957)"
         points="17.593,35.411 17.593,23.606 16.591,23.606 14.698,23.606 14.698,35.411 16.591,35.411 "
         id="polygon120"
         style="fill:#48413a;fill-opacity:1" /><polygon
         transform="matrix(10.118873,0,0,10.118873,-16.237746,-895.64957)"
         points="17.593,70.16 17.593,58.354 16.591,58.354 14.698,58.354 14.698,70.16 16.591,70.16 "
         id="polygon122"
         style="fill:#48413a;fill-opacity:1" /><path
         transform="translate(2,-902)"
         d="m 628.0648,400.25793 c 23.93114,26.81501 39.21063,61.50251 41.42667,99.64054 h 60.25789 C 727.43213,445.2262 705.20097,395.62348 670.19979,358.1027 l -42.13499,42.15523 z"
         id="path124"
         inkscape:connector-curvature="0"
         style="fill:#6cb33f;fill-opacity:1" /><path
         transform="translate(2,-902)"
         d="M 385.54577,397.83951 345.80895,358.1027 c -35.02142,37.51066 -57.24246,87.11338 -59.55968,141.79577 h 55.64368 c 2.26663,-39.3017 18.42647,-74.94038 43.65282,-102.05896 z"
         id="path126"
         inkscape:connector-curvature="0"
         style="fill:#b2cee6;fill-opacity:1" /><path
         transform="translate(2,-902)"
         d="m 616.14477,388.24682 42.07427,-42.04391 C 621.5786,312.49694 573.67586,290.91338 520.8857,287.88784 l 50.88781,71.44936 c 16.39257,7.21476 31.34827,17.00983 44.37126,28.90962 z"
         id="path128"
         inkscape:connector-curvature="0"
         style="fill:#002d62;fill-opacity:1" /><path
         transform="translate(2,-902)"
         d="m 341.7614,516.78687 h -55.57285 c 1.78092,55.00619 23.65793,104.99343 58.52756,142.89873 l 39.7267,-39.76718 C 359.36824,592.4558 343.53221,556.44273 341.7614,516.78687 z"
         id="path130"
         inkscape:connector-curvature="0"
         style="fill:#fbb034;fill-opacity:1" /><path
         transform="translate(2,-902)"
         d="M 439.56031,359.34732 490.19515,288.242 c -50.84733,4.05767 -96.94892,25.27694 -132.40545,57.95079 l 39.87848,39.87848 c 12.45633,-10.90815 26.55192,-19.95442 41.89213,-26.72395 z"
         id="path132"
         inkscape:connector-curvature="0"
         style="fill:#005cab;fill-opacity:1" /><path
         transform="translate(2,-902)"
         d="m 356.63615,671.68658 c 37.75351,35.26427 87.81158,57.49544 142.90884,59.60016 v -57.8496 c -39.48384,-1.46723 -75.44632,-16.90863 -103.06072,-41.58856 l -39.84812,39.838 z"
         id="path134"
         inkscape:connector-curvature="0"
         style="fill:#f15d22;fill-opacity:1" /><path
         transform="translate(2,-902)"
         d="m 629.11716,617.47978 42.17547,42.21593 c 34.83928,-37.90529 56.71628,-87.90265 58.4972,-142.89872 h -60.1567 c -1.69997,38.47195 -16.74673,73.51361 -40.51597,100.68279 z"
         id="path136"
         inkscape:connector-curvature="0"
         style="fill:#7c6a55;fill-opacity:1" /><path
         transform="translate(2,-902)"
         d="m 516.46375,673.16393 v 58.11269 c 55.09726,-2.10472 105.12497,-24.32577 142.90884,-59.60016 l -42.05403,-42.08439 c -26.86561,24.98349 -62.01858,41.08262 -100.85481,43.57186 z"
         id="path138"
         inkscape:connector-curvature="0"
         style="fill:#005cab;fill-opacity:1" /><path
         transform="translate(2,-902)"
         d="m 499.54499,345.53506 c 2.0339,-0.0809 4.08803,-0.17202 6.14216,-0.17202 3.61244,0 7.19452,0.17202 10.76648,0.38452 7.11357,0.47558 14.12595,1.38628 20.98654,2.73209 l -20.97642,-29.45604 -10.76648,-15.12771 -6.14216,8.61116 -25.61087,35.98271 c 8.3076,-1.65949 16.86817,-2.64103 25.60075,-2.95471 z"
         id="path140"
         inkscape:connector-curvature="0"
         style="fill:#f15d22;fill-opacity:1" /><path
         transform="matrix(2.6557083,0,0,2.6557083,106.2167,-1352.4132)"
         d="m 172.49666,338.42831 c 0,2.17616 -1.82946,3.94028 -4.08621,3.94028 -2.25676,0 -4.08622,-1.76412 -4.08622,-3.94028 0,-2.17615 1.82946,-3.94027 4.08622,-3.94027 2.25675,0 4.08621,1.76412 4.08621,3.94027 z"
         sodipodi:ry="3.940279"
         sodipodi:rx="4.0862155"
         sodipodi:cy="338.42831"
         sodipodi:cx="168.41045"
         id="path3803"
         style="color:#000000;fill:#48413a;fill-opacity:1;stroke:#48413a;stroke-width:10;stroke-linecap:round;stroke-linejoin:miter;stroke-miterlimit:4;stroke-opacity:1;stroke-dasharray:none;stroke-dashoffset:0;marker:none;visibility:visible;display:inline;overflow:visible;enable-background:accumulate"
         sodipodi:type="arc" /><path
         sodipodi:nodetypes="csc"
         inkscape:connector-curvature="0"
         id="path2985-9"
         d="m 601.20166,-381.7503 c 0,51.07276 -41.40268,92.47544 -92.4754,92.47544 -51.07277,0 -92.47544,-41.40268 -92.47544,-92.47544"
         style="opacity:0;color:#000000;fill:none;stroke:#000000;stroke-width:26.55708504;stroke-linecap:round;stroke-linejoin:miter;stroke-miterlimit:4;stroke-opacity:1;stroke-dasharray:none;stroke-dashoffset:0;marker:none;visibility:visible;display:inline;overflow:visible;enable-background:accumulate" /><path
         d="m 172.49666,338.42831 c 0,2.17616 -1.82946,3.94028 -4.08621,3.94028 -2.25676,0 -4.08622,-1.76412 -4.08622,-3.94028 0,-2.17615 1.82946,-3.94027 4.08622,-3.94027 2.25675,0 4.08621,1.76412 4.08621,3.94027 z"
         sodipodi:ry="3.940279"
         sodipodi:rx="4.0862155"
         sodipodi:cy="338.42831"
         sodipodi:cx="168.41045"
         id="path3803-5"
         style="color:#000000;fill:#48413a;fill-opacity:1;stroke:#48413a;stroke-width:10;stroke-linecap:round;stroke-linejoin:miter;stroke-miterlimit:4;stroke-opacity:1;stroke-dasharray:none;stroke-dashoffset:0;marker:none;visibility:visible;display:inline;overflow:visible;enable-background:accumulate"
         sodipodi:type="arc"
         transform="matrix(2.6557083,0,0,2.6557083,15.695508,-1352.4132)" /><path
         style="fill:#48413a;fill-opacity:1"
         d="m 507.05166,-290.61828 c -63.63229,0 -91.16791,-44.30883 -92.31071,-46.19747 -6.47992,-10.7103 -3.0515,-24.64452 7.66282,-31.12844 10.61406,-6.41174 24.432,-3.10763 30.97607,7.42624 0.95037,1.45959 16.72909,24.57635 53.67583,24.57635 37.55222,0 53.82419,-24.35982 53.98057,-24.62046 6.63229,-10.61006 20.63067,-13.83398 31.22869,-7.21371 10.6221,6.64431 13.842,20.63066 7.21372,31.24072 -1.17488,1.86858 -29.41223,45.91677 -92.42699,45.91677 z"
         id="path124-3"
         inkscape:connector-curvature="0" /></g></g><g
     inkscape:groupmode="layer"
     id="layer2"
     inkscape:label="Layer#1"
     sodipodi:insensitive="true"
     style="display:none"
     transform="translate(-2,902)"><path
       style="fill:#000000"
       inkscape:connector-curvature="0"
       id="path142"
       d="m 61.640144,59.842378 c 0.412,-0.375 0.803,-0.772 1.166,-1.196 1.969,-2.291 3.201,-5.217 3.367,-8.428 0.012,-0.24 0.035,-0.478 0.035,-0.724 0,-0.319 -0.025,-0.634 -0.047,-0.946 -0.215,-3.178 -1.479,-6.064 -3.461,-8.32 -0.367,-0.419 -0.76,-0.816 -1.176,-1.188 -0.744,-0.67 -1.553,-1.262 -2.426,-1.759 -0.627,-0.362 -1.283,-0.668 -1.967,-0.929 -1.24,-0.473 -2.559,-0.776 -3.934,-0.88 -0.354,-0.026 -0.705,-0.054 -1.064,-0.054 -0.205,0 -0.404,0.022 -0.607,0.031 -1.541,0.065 -3.015,0.379 -4.389,0.903 -0.681,0.26 -1.337,0.566 -1.965,0.925 -0.778,0.445 -1.512,0.962 -2.189,1.545 -0.423,0.362 -0.821,0.755 -1.197,1.165 -2.106,2.288 -3.458,5.266 -3.679,8.56 -0.02,0.312 -0.047,0.627 -0.047,0.946 0,0.246 0.025,0.484 0.036,0.724 0.171,3.326 1.492,6.343 3.585,8.668 0.373,0.415 0.766,0.807 1.185,1.172 2.337,2.056 5.35,3.342 8.66,3.48 0.203,0.011 0.402,0.035 0.607,0.035 0.359,0 0.711,-0.03 1.064,-0.06 3.246,-0.24 6.18,-1.592 8.443,-3.67 z m -9.506,1.459 c -0.205,0 -0.406,-0.022 -0.607,-0.031 -2.685,-0.136 -5.136,-1.167 -7.056,-2.812 -0.424,-0.365 -0.817,-0.757 -1.186,-1.177 -1.684,-1.911 -2.754,-4.363 -2.918,-7.063 -0.015,-0.24 -0.036,-0.478 -0.036,-0.724 0,-0.319 0.021,-0.634 0.047,-0.946 0.212,-2.667 1.316,-5.08 3.011,-6.955 0.374,-0.415 0.77,-0.808 1.198,-1.165 1.901,-1.587 4.311,-2.573 6.939,-2.709 0.201,-0.009 0.402,-0.03 0.607,-0.03 0.359,0 0.713,0.023 1.064,0.055 2.564,0.23 4.891,1.288 6.725,2.901 0.416,0.369 0.811,0.764 1.172,1.188 1.574,1.838 2.59,4.163 2.797,6.716 0.023,0.312 0.049,0.627 0.049,0.946 0,0.246 -0.025,0.484 -0.039,0.724 -0.156,2.586 -1.141,4.952 -2.701,6.825 -0.355,0.428 -0.75,0.821 -1.166,1.196 -1.846,1.672 -4.215,2.771 -6.836,3.007 -0.351,0.032 -0.704,0.054 -1.064,0.054 z" /><path
       style="fill:#000000"
       inkscape:connector-curvature="0"
       id="path144"
       d="m 58.150144,56.351378 c 0.416,-0.369 0.803,-0.772 1.146,-1.213 1.092,-1.374 1.785,-3.069 1.934,-4.92 0.018,-0.238 0.035,-0.478 0.035,-0.724 0,-0.319 -0.018,-0.634 -0.047,-0.946 -0.188,-1.819 -0.912,-3.481 -2.016,-4.825 -0.352,-0.433 -0.746,-0.828 -1.17,-1.188 -1.338,-1.135 -3.004,-1.89 -4.834,-2.104 -0.352,-0.042 -0.703,-0.067 -1.064,-0.067 -0.205,0 -0.406,0.018 -0.607,0.029 -1.894,0.126 -3.632,0.828 -5.037,1.938 -0.439,0.346 -0.843,0.731 -1.21,1.149 -1.217,1.387 -2.028,3.134 -2.228,5.068 -0.033,0.312 -0.048,0.627 -0.048,0.946 0,0.246 0.017,0.485 0.037,0.724 0.152,1.967 0.93,3.754 2.134,5.175 0.36,0.426 0.758,0.819 1.191,1.172 1.425,1.168 3.212,1.901 5.162,2.033 0.201,0.013 0.402,0.031 0.607,0.031 0.361,0 0.713,-0.028 1.064,-0.071 1.885,-0.218 3.592,-1.015 4.951,-2.207 z" /></g></svg>